<svg width="100%" height="100%" preserveAspectRatio="xMidYMid meet" fill="currentColor" xmlns="http://www.w3.org/2000/svg" viewBox="0 0 473.952 1096.293"><path d="M50.7 4.156c-2.1 2.4-8.3 10.2-13.7 17.4-25.8 34.4-37 62.3-37 92.4 0 30.2 10.9 56.4 37.5 90.5 18.7 24 40.3 48.8 67.3 77.3 8.5 8.9 18.8 20.4 22.9 25.5 9.3 11.6 27.2 37.1 33.8 48.1 2.8 4.6 6.3 10.3 7.9 12.7 5.4 8.1 10.6 20.7 20.2 48.8 11.4 33.6 14.2 45.2 15.4 63.3.6 9.1 1.8 17.1 3.7 24 2.9 11.2 3.3 19.8 2.3 51.3-.2 8.2 0 23.8.4 34.5.9 19.5.9 19.5-2.2 32.5-3.9 16-5.3 28.3-4.9 44 .2 12 .2 12-5.5 24-8.3 17.7-9.8 25-7.4 38.5 1.1 6.6 2.8 11.2 7.5 20.5 8.5 16.9 9.1 19.5 9.7 43 .5 17.9.3 22-2 39.5-4.2 31.3-7 62.3-8.3 91.7-.6 12.4.7 17.2 8.1 32.2 5.6 11.2 7.1 16.2 8.1 27.6q1.2 12.15 5.7 15.6c1.8 1.4 2.1 2.8 2.3 10.5.3 8.7.2 9-2.9 12.4-1.7 1.9-3.9 4.6-4.8 5.9-2 2.8-.7 3.5-13.8-7.4-10.8-9-20-15.9-20.4-15.4-.6.7-3.6 6.8-3.6 7.3 0 .3 3.5 3.1 7.8 6.3 4.2 3.1 10.4 8 13.7 10.8s7 5.8 8.3 6.7c1.8 1.2 2.2 2.1 1.6 4.3-.4 1.5-1.5 3-2.4 3.2-3.3.9-5.1 9.3-1.9 9.3.5 0 .9 3.3.9 7.4 0 4 .7 9.2 1.5 11.5 3.3 9.3 12.2 17.9 22.5 21.7 6.3 2.3 20.5 2.4 24.7.1 4.3-2.3 6-2.2 5.9.6-.1 2.5 1.4 2.6 9.1.9 6.4-1.4 9.1-3.7 12.5-10.7 3.4-6.8 4.9-7.8 17.3-11.5 7.3-2.2 10.5-5.1 20.5-18.5 7.7-10.4 10.5-13.4 12.8-13.8 2-.4 3.4-1.7 4.8-4.4 1-2.1 4.9-7.2 8.5-11.3 18-20.5 25.8-34 26.7-45.9.9-13.2-2.3-16.6-19.4-20.6-17.3-4-29.4-3-47.9 4.2-.8.2-2.3-2.8-4-8.2l-2.9-8.7 3.7-12.6c6-20.9 6.5-29.5 3.7-54.7-1.1-9.5-1.3-15.2-1-30.5.1-8.4-.4-13.9-1.9-20.5-1.1-5-2.7-14.6-3.6-21.4-1.4-11.1-1.4-12.5 0-14 .8-1 1.5-2.7 1.5-3.8 0-1.5 1.5-2.7 5.9-4.6 9.4-4.1 11.9-8.8 13.1-24.7.8-10 2-14.6 8-31.4 2.6-7.2 1.4-9.3-2.3-4.4-3.6 4.7-4.5 7.3-8.2 24.7-3.1 14.3-3.6 15.6-6.7 18.3-3.6 3.1-11.5 7.1-12.7 6.3-.4-.2-2.1-2.3-3.7-4.6-2.9-4.2-2.9-4.2-2.8-26.8.1-18.1.5-23.8 1.9-28.6 1.1-3.8 1.9-11.3 2.2-20.6.5-14.1.4-15.1-2.7-27-2.7-10.8-3.2-14.5-3.6-28.4-.5-18.4-1.6-28.5-5.1-47.5-1.3-7.4-3.5-20.5-4.8-29s-2.9-18.8-3.6-22.7c-1-5.8-1.1-11.6-.2-28.1.8-14.5.9-23.1.1-28.5-1.1-8.9-.8-10.4 8.2-35.3 3.2-8.9 8.6-25.5 12-37 6.8-23 14.5-45.2 18.3-52.9 1.3-2.8 3.9-8.4 5.7-12.5s3.8-8.2 4.5-9c.6-.8 4.9-8.5 9.5-17 14.8-27.7 17.1-30.6 60-75 35-36.3 47.9-51.1 58.2-67 11.4-17.5 19.5-37.5 21.9-53.8 1.8-12.9.7-33.5-2.5-45.7-5.7-21.9-23.3-50-42.5-67.8-7.2-6.7-8.7-6.2-8.4 3.1.2 7.2.2 7.2-3.6 7.2-3.9 0-5.1 1.1-5.1 4.7 0 .8 2.4 7 5.4 13.7 22.4 50 26.5 87.4 13.6 126.6-9 27.5-26.5 53.5-46.2 68.8-5.5 4.2-17 13.1-25.5 19.8-17.7 13.7-25.1 18.5-47.9 30.8-10.4 5.6-16.4 9.4-16.7 10.6-.3 1 .1 4.5.9 7.7s1.4 7.9 1.4 10.5c0 5.1-2.4 17.7-3.9 20.5-.5 1-2.6 6.7-4.6 12.8-4.6 13.6-16.5 38.6-27.6 57.6-11.4 19.6-16.4 29.6-17.9 35.7-.8 2.9-1.7 5.2-2 5.2-.4 0-1.2-2.8-1.8-6.1-1.6-8.8-5-15.4-23.5-46.1-18.8-31.4-19.7-33-27-49.8-7.6-17.3-7.8-18.5-7.6-30.1.2-9.9.2-10.4-2.2-12.2-1.4-1-12-6.2-23.5-11.6-34.1-15.8-38.6-19-84.1-58.3-18.1-15.6-25.5-23.9-30.6-34.1-8.6-17.4-11.6-29.9-11.7-48.9 0-26.8 4.4-38.9 38.9-105.1 3.5-6.8 6.1-13 6.1-14.8 0-3.7-3.9-7.9-7.4-7.9-3.2 0-4.5-2.4-3.9-7 .3-2-.1-5.1-1-7.3-2.2-5-4.9-4.9-10 .5m272.8 1008.8c-2.2 4.4-4.5 8-5.2 8-1.7 0-3.3 3.3-3.1 6.2.2 2.5-8.8 16.2-13.5 20.7-2.3 2.1-2.8 2.2-4.6.9-1.4-1-1.7-1.8-1-2.8 2.7-4.4-.6-12.7-6-15-2.1-.8-3-1.8-2.7-2.7.4-.8.6-2.5.6-3.7 0-1.6 1.2-2.8 4.4-4.3 2.4-1.2 6.9-4.3 10.1-6.9 4.8-3.8 7-4.9 12.4-6 3.6-.7 7.7-1.7 9.1-2.2s2.7-.8 2.9-.6c.3.3-1.3 4-3.4 8.4m-30.3 25c2.1 2.6 2.3 5.4.6 6.7-1.6 1.3-13.6 1.4-14.4.2-.3-.5.4-3 1.6-5.5 2-4.7 2-4.7 6.2-4.1 2.7.4 4.9 1.4 6 2.7"/></svg>