<svg viewBox="0 0 210 184" xmlns="http://www.w3.org/2000/svg"><defs><linearGradient id="isl" x1="0" y1="0" x2="0" y2="1"><stop offset="0%" stop-color="#23536f"/><stop offset="100%" stop-color="#143b54"/></linearGradient></defs><rect width="210" height="184" fill="none"/><path d="M 118,40 C 134,42 142,60 138,80 C 135,96 146,108 140,128 C 134,150 116,156 104,146 C 94,138 90,120 94,104 C 97,90 86,78 96,60 C 102,48 108,40 118,40 Z" fill="url(#isl)" stroke="#5f9bba" stroke-width="1.8"/><text x="116" y="100" text-anchor="middle" fill="#bcd6e4" font-family="'DM Sans', sans-serif" font-weight="700" font-size="9" letter-spacing="1.2">KOH TAO</text><circle cx="86" cy="52" r="6" fill="url(#isl)" stroke="#5f9bba" stroke-width="1.1"/><circle cx="95" cy="46" r="4.5" fill="url(#isl)" stroke="#5f9bba" stroke-width="1.1"/><circle cx="90" cy="60" r="4" fill="url(#isl)" stroke="#5f9bba" stroke-width="1.1"/><line x1="38" y1="34" x2="100" y2="52" stroke="#7fd2e6" stroke-width="1.3" stroke-dasharray="2.5 2.5"/><g transform="translate(38,34)"><circle r="8" fill="none" stroke="#f4c95d" stroke-width="1.8"/><circle r="3.6" fill="#f4c95d"/></g><text x="50" y="38" fill="#f4c95d" font-family="'DM Sans', sans-serif" font-weight="700" font-size="11" text-anchor="start">Chumphon</text></svg>
