  <svg viewBox="0 0 900 1180" xmlns="http://www.w3.org/2000/svg">
  <defs>
    <radialGradient id="water" cx="50%" cy="38%" r="78%">
      <stop offset="0%" stop-color="#123c5b"/>
      <stop offset="62%" stop-color="#0d2b44"/>
      <stop offset="100%" stop-color="#081d31"/>
    </radialGradient>
    <marker id="arrow" markerWidth="9" markerHeight="9" refX="6" refY="3" orient="auto">
      <path d="M0,0 L7,3 L0,6 Z" fill="#7fd2e6"/>
    </marker>
    <marker id="route" markerWidth="9" markerHeight="9" refX="5" refY="3" orient="auto">
      <path d="M0,0 L6,3 L0,6 Z" fill="#f2e6c0"/>
    </marker>
  </defs>
  <rect x="6" y="6" width="888" height="1168" rx="26" fill="url(#water)" stroke="#2f5d7d" stroke-width="2"/>
  <path d="M 791.8,600.0 C 791.3,649.6 815.6,699.2 807.5,748.1 C 799.5,797.0 773.8,847.7 743.3,893.3 C 712.8,938.9 673.6,1011.1 624.8,1021.9 C 575.9,1032.7 503.7,969.1 450.0,958.1 C 396.3,947.1 344.8,973.5 302.5,956.1 C 260.2,938.8 231.3,888.5 196.1,853.9 C 160.9,819.3 121.7,790.9 91.2,748.6 C 60.7,706.3 24.3,654.3 12.9,600.0 C 1.5,545.7 3.2,476.3 22.8,423.0 C 42.4,369.8 88.3,320.9 130.6,280.6 C 172.9,240.3 223.3,178.9 276.5,181.2 C 329.8,183.5 399.6,276.6 450.0,294.5 C 500.4,312.5 525.3,291.5 578.9,288.9 C 632.4,286.2 732.8,251.6 771.4,278.6 C 810.1,305.5 807.4,397.0 810.8,450.6 C 814.2,504.1 792.3,550.4 791.8,600.0 Z" fill="#caa86a" opacity="0.10"/>
<path d="M 683.3,560.0 C 679.8,588.9 694.8,619.3 685.1,643.0 C 675.3,666.7 641.3,678.1 624.7,702.2 C 608.1,726.3 607.8,774.2 585.4,787.6 C 563.1,800.9 520.3,779.7 490.4,782.1 C 460.5,784.6 435.9,800.2 406.0,802.1 C 376.1,803.9 334.9,808.3 311.1,793.3 C 287.4,778.2 284.4,735.1 263.6,711.7 C 242.8,688.3 199.6,678.3 186.5,653.0 C 173.4,627.7 180.7,589.5 185.0,560.0 C 189.2,530.5 201.0,502.9 212.1,476.0 C 223.3,449.2 233.7,420.7 252.1,398.9 C 270.4,377.1 296.2,356.8 322.2,345.3 C 348.2,333.8 378.7,339.0 408.2,329.9 C 437.6,320.7 471.7,286.1 499.0,290.3 C 526.3,294.6 544.1,339.5 571.9,355.2 C 599.6,370.9 643.2,365.5 665.6,384.5 C 688.0,403.6 703.5,440.2 706.5,469.5 C 709.4,498.7 686.9,531.1 683.3,560.0 Z" fill="#173E60" stroke="#0c2138" stroke-width="1.4" opacity="0.97"/>
<path d="M 696.2,560.0 C 695.2,581.8 643.4,600.1 632.0,624.2 C 620.5,648.3 639.8,684.7 627.6,704.6 C 615.5,724.4 581.6,728.4 559.0,743.2 C 536.5,758.0 516.8,789.7 492.4,793.2 C 468.0,796.7 440.2,769.0 412.9,764.1 C 385.6,759.3 347.9,777.3 328.6,764.0 C 309.3,750.7 315.6,704.8 297.1,684.4 C 278.6,664.1 227.9,662.7 217.7,642.0 C 207.5,621.3 228.7,584.8 236.0,560.0 C 243.2,535.2 252.3,515.2 261.2,493.3 C 270.0,471.5 276.3,449.5 288.9,428.9 C 301.6,408.3 315.5,378.6 336.8,369.8 C 358.0,361.0 391.6,378.3 416.6,376.1 C 441.6,374.0 465.4,353.1 486.9,356.9 C 508.4,360.8 526.9,385.8 545.6,399.4 C 564.3,413.0 583.6,423.0 599.0,438.7 C 614.4,454.4 621.9,473.4 638.2,493.6 C 654.4,513.8 697.3,538.2 696.2,560.0 Z" fill="#21567F" stroke="#0c2138" stroke-width="1.4" opacity="0.97"/>
<path d="M 643.7,560.0 C 647.2,581.7 653.1,609.4 644.6,628.7 C 636.0,648.0 608.3,659.6 592.4,675.9 C 576.5,692.2 566.8,712.6 549.2,726.6 C 531.5,740.6 508.4,757.7 486.4,760.0 C 464.4,762.3 439.9,746.0 417.2,740.5 C 394.5,735.1 370.2,736.9 350.3,727.5 C 330.3,718.1 313.0,700.7 297.4,684.2 C 281.9,667.6 259.0,648.9 256.9,628.2 C 254.8,607.5 279.4,580.9 284.6,560.0 C 289.9,539.1 288.1,525.1 288.5,503.0 C 289.0,480.9 277.1,446.1 287.4,427.6 C 297.6,409.1 328.0,397.9 350.0,391.9 C 372.0,385.9 396.9,395.4 419.4,391.6 C 441.8,387.8 465.3,365.1 484.7,369.1 C 504.1,373.1 518.6,402.7 535.9,415.7 C 553.3,428.6 574.1,433.2 588.8,447.0 C 603.5,460.9 614.8,479.8 623.9,498.6 C 633.1,517.4 640.3,538.3 643.7,560.0 Z" fill="#2A77A2" stroke="#0c2138" stroke-width="1.4" opacity="0.97"/>
<path d="M 623.9,560.0 C 621.5,576.6 592.3,590.6 583.6,607.2 C 575.0,623.7 581.3,645.3 572.0,659.3 C 562.8,673.3 543.4,679.9 528.2,691.3 C 512.9,702.7 497.9,725.5 480.5,727.9 C 463.1,730.2 441.6,711.6 423.6,705.3 C 405.6,699.0 388.6,697.6 372.6,690.1 C 356.5,682.5 338.2,673.1 327.3,659.9 C 316.4,646.6 315.5,627.1 307.0,610.5 C 298.5,593.8 279.4,578.0 276.2,560.0 C 273.0,542.0 280.2,520.1 287.9,502.8 C 295.7,485.5 307.3,466.3 322.7,456.4 C 338.2,446.5 364.5,454.3 380.6,443.3 C 396.7,432.4 403.1,396.8 419.3,390.9 C 435.4,385.1 459.1,402.5 477.6,408.1 C 496.1,413.8 514.8,415.9 530.5,424.8 C 546.2,433.6 560.3,447.2 571.6,461.0 C 582.9,474.9 589.4,491.2 598.1,507.7 C 606.9,524.2 626.3,543.4 623.9,560.0 Z" fill="#359FBE" stroke="#0c2138" stroke-width="1.4" opacity="0.97"/>
<path d="M 562.6,560.0 C 564.2,575.0 586.4,594.8 582.3,606.7 C 578.1,618.6 548.6,620.5 537.7,631.4 C 526.8,642.4 527.6,662.5 516.9,672.4 C 506.3,682.4 488.9,688.4 473.8,691.0 C 458.8,693.7 440.6,693.2 426.7,688.1 C 412.8,683.0 401.8,669.2 390.2,660.4 C 378.7,651.6 368.1,644.9 357.2,635.5 C 346.3,626.2 332.8,616.8 324.8,604.2 C 316.7,591.6 308.4,574.6 308.7,560.0 C 309.0,545.4 319.3,529.7 326.6,516.4 C 333.9,503.2 342.1,490.5 352.5,480.6 C 362.8,470.7 376.1,463.6 388.8,457.2 C 401.5,450.9 414.6,446.7 428.7,442.6 C 442.7,438.5 459.3,430.5 473.1,432.8 C 487.0,435.0 499.5,448.1 511.8,456.1 C 524.2,464.1 537.3,470.6 547.4,480.7 C 557.5,490.9 569.9,503.6 572.4,516.8 C 575.0,530.0 560.9,545.0 562.6,560.0 Z" fill="#54C2C9" stroke="#0c2138" stroke-width="1.4" opacity="0.97"/>
<path d="M 556.5,560.0 C 557.2,570.4 546.4,582.2 540.7,592.0 C 535.0,601.8 529.4,610.8 522.3,618.8 C 515.1,626.9 506.9,633.9 497.8,640.3 C 488.7,646.7 478.7,653.4 467.6,657.1 C 456.6,660.7 442.1,665.4 431.4,662.3 C 420.7,659.1 411.7,646.0 403.5,638.2 C 395.3,630.3 389.0,623.0 382.3,615.1 C 375.7,607.1 366.4,599.7 363.6,590.5 C 360.9,581.3 366.7,570.5 365.7,560.0 C 364.6,549.5 357.0,538.4 357.4,527.3 C 357.8,516.2 359.8,500.0 367.9,493.2 C 376.0,486.3 395.4,491.3 406.1,486.3 C 416.9,481.3 422.5,464.8 432.4,463.1 C 442.2,461.4 453.5,474.7 465.3,476.1 C 477.0,477.4 493.0,467.3 502.8,471.3 C 512.6,475.3 518.2,490.2 523.9,499.9 C 529.5,509.6 531.2,519.4 536.6,529.4 C 542.0,539.4 555.8,549.6 556.5,560.0 Z" fill="#86E6CF" stroke="#0c2138" stroke-width="1.4" opacity="0.97"/>
<path d="M 814.9,430.0 C 816.5,440.4 813.3,452.0 810.6,463.0 C 807.9,474.0 806.2,488.4 798.6,496.0 C 791.1,503.6 775.8,504.6 765.3,508.4 C 754.8,512.3 746.2,515.9 735.7,519.2 C 725.3,522.5 713.2,529.5 702.7,528.3 C 692.2,527.1 681.5,518.5 672.7,512.0 C 663.9,505.4 656.5,497.2 649.9,488.8 C 643.3,480.5 636.4,471.5 632.9,461.7 C 629.5,451.9 628.3,440.2 629.2,430.0 C 630.1,419.8 635.9,410.8 638.4,400.3 C 641.0,389.8 639.9,377.0 644.7,366.8 C 649.6,356.7 658.0,345.1 667.6,339.3 C 677.3,333.5 691.1,332.9 702.7,331.9 C 714.3,330.8 726.6,329.9 737.1,333.2 C 747.5,336.4 756.4,345.1 765.5,351.2 C 774.6,357.3 785.6,361.8 791.5,370.0 C 797.4,378.2 797.1,390.5 801.0,400.5 C 804.9,410.5 813.3,419.6 814.9,430.0 Z" fill="#173E60" stroke="#0c2138" stroke-width="1.4" opacity="0.97"/>
<path d="M 803.8,430.0 C 802.5,438.3 788.0,444.5 784.8,453.6 C 781.6,462.6 789.7,478.2 784.8,484.4 C 779.9,490.6 763.8,487.6 755.1,490.8 C 746.5,494.0 741.2,500.0 733.0,503.5 C 724.7,507.1 713.8,513.7 705.6,511.9 C 697.4,510.1 691.0,498.4 683.7,492.8 C 676.5,487.3 666.9,485.1 662.1,478.5 C 657.4,472.0 659.8,461.6 655.4,453.5 C 651.0,445.4 638.1,438.8 635.6,430.0 C 633.1,421.2 635.0,408.4 640.2,401.0 C 645.5,393.6 659.6,390.7 667.2,385.7 C 674.8,380.7 679.4,376.0 686.0,371.1 C 692.6,366.2 699.1,358.9 707.0,356.3 C 714.9,353.7 724.3,354.8 733.2,355.4 C 742.0,356.0 753.3,355.4 760.4,360.1 C 767.4,364.7 770.0,376.3 775.4,383.5 C 780.7,390.8 787.8,395.9 792.5,403.6 C 797.2,411.4 805.0,421.7 803.8,430.0 Z" fill="#2A77A2" stroke="#0c2138" stroke-width="1.4" opacity="0.97"/>
<path d="M 774.9,430.0 C 774.1,436.3 770.9,441.4 769.6,448.0 C 768.3,454.6 770.9,464.6 767.2,469.6 C 763.6,474.6 754.2,476.5 747.8,478.1 C 741.3,479.6 735.0,477.3 728.6,479.0 C 722.3,480.7 715.3,489.5 709.7,488.5 C 704.1,487.4 700.1,477.2 695.2,472.9 C 690.4,468.7 684.2,467.4 680.6,463.1 C 677.0,458.7 676.5,452.5 673.4,447.0 C 670.4,441.4 664.2,436.3 662.4,430.0 C 660.7,423.7 660.7,415.4 663.0,409.2 C 665.2,403.1 670.9,397.1 676.1,393.1 C 681.3,389.1 688.6,389.0 694.1,385.2 C 699.7,381.4 703.4,372.8 709.5,370.2 C 715.5,367.6 724.4,367.5 730.6,369.8 C 736.8,372.1 741.7,379.5 746.6,383.9 C 751.5,388.3 755.5,391.9 760.2,396.3 C 764.9,400.6 772.3,404.5 774.7,410.1 C 777.2,415.7 775.8,423.7 774.9,430.0 Z" fill="#359FBE" stroke="#0c2138" stroke-width="1.4" opacity="0.97"/>
<path d="M 755.9,430.0 C 755.8,434.3 756.6,439.0 755.1,442.8 C 753.6,446.5 749.5,449.0 747.0,452.6 C 744.5,456.3 743.6,463.3 740.0,464.7 C 736.4,466.1 730.0,460.2 725.5,461.1 C 721.0,462.0 717.0,469.8 712.9,470.1 C 708.9,470.4 704.8,465.4 701.0,462.9 C 697.2,460.4 693.1,458.3 690.2,455.0 C 687.2,451.8 684.0,447.5 683.4,443.3 C 682.8,439.1 686.7,434.4 686.7,430.0 C 686.7,425.6 682.5,420.6 683.3,416.6 C 684.0,412.6 687.9,408.4 691.2,405.9 C 694.6,403.4 700.0,404.1 703.6,401.6 C 707.3,399.1 709.4,392.2 713.1,391.1 C 716.9,390.0 721.8,394.0 726.2,395.0 C 730.5,396.0 736.0,394.6 739.1,396.9 C 742.2,399.3 741.9,406.0 744.7,409.3 C 747.4,412.7 753.6,413.6 755.5,417.1 C 757.4,420.5 755.9,425.7 755.9,430.0 Z" fill="#86E6CF" stroke="#0c2138" stroke-width="1.4" opacity="0.97"/>
<path d="M 809.3,760.0 C 809.1,772.4 811.4,786.0 806.9,797.0 C 802.3,807.9 789.8,814.9 782.2,825.5 C 774.5,836.1 771.9,856.3 761.0,860.4 C 750.1,864.5 730.5,847.4 716.7,850.0 C 702.9,852.6 690.9,875.1 678.5,876.0 C 666.0,876.8 653.6,862.5 642.1,855.3 C 630.5,848.1 618.0,841.9 609.1,832.5 C 600.1,823.0 590.2,810.6 588.5,798.6 C 586.7,786.5 598.6,772.9 598.5,760.0 C 598.5,747.1 585.7,732.9 588.0,721.3 C 590.4,709.7 602.1,697.4 612.4,690.2 C 622.7,682.9 638.9,684.9 650.0,677.8 C 661.2,670.7 667.6,650.6 679.1,647.4 C 690.6,644.2 705.6,655.9 718.8,658.7 C 732.0,661.5 748.8,657.4 758.2,664.3 C 767.6,671.2 766.8,690.4 775.1,700.1 C 783.5,709.8 802.5,712.6 808.2,722.6 C 813.9,732.6 809.5,747.6 809.3,760.0 Z" fill="#173E60" stroke="#0c2138" stroke-width="1.4" opacity="0.97"/>
<path d="M 785.3,760.0 C 783.3,769.6 779.6,777.1 777.5,786.8 C 775.4,796.5 778.6,810.7 772.8,818.1 C 767.1,825.4 752.6,826.7 743.0,830.7 C 733.4,834.8 725.0,840.3 715.3,842.3 C 705.5,844.3 694.2,845.0 684.6,842.7 C 675.1,840.5 667.2,833.4 658.2,828.8 C 649.2,824.2 638.8,821.5 630.7,815.2 C 622.6,809.0 610.8,800.5 609.5,791.3 C 608.1,782.1 621.2,770.0 622.4,760.0 C 623.6,750.0 614.2,739.5 616.7,731.2 C 619.2,722.9 630.9,717.6 637.3,710.0 C 643.6,702.3 646.7,691.0 654.6,685.3 C 662.5,679.6 674.6,675.3 684.4,675.7 C 694.2,676.2 704.2,684.7 713.4,688.0 C 722.5,691.3 730.2,692.4 739.2,695.4 C 748.2,698.5 758.9,700.7 767.3,706.3 C 775.7,711.9 786.7,720.1 789.7,729.0 C 792.6,737.9 787.4,750.4 785.3,760.0 Z" fill="#2A77A2" stroke="#0c2138" stroke-width="1.4" opacity="0.97"/>
<path d="M 757.3,760.0 C 757.3,766.9 761.5,774.5 759.6,780.6 C 757.8,786.7 750.8,791.5 746.2,796.8 C 741.5,802.1 737.8,809.1 731.8,812.3 C 725.9,815.6 717.8,814.3 710.5,816.5 C 703.2,818.8 695.0,826.5 687.7,826.0 C 680.5,825.6 673.9,818.0 667.2,813.9 C 660.5,809.9 653.2,807.0 647.4,801.9 C 641.7,796.8 634.6,790.3 632.6,783.3 C 630.7,776.3 634.3,767.3 635.6,760.0 C 636.8,752.7 636.6,745.1 639.9,739.2 C 643.2,733.3 651.1,730.4 655.3,724.4 C 659.6,718.4 659.6,706.0 665.3,703.0 C 671.1,700.0 682.5,706.6 690.0,706.4 C 697.6,706.2 704.2,700.9 710.8,701.8 C 717.4,702.6 722.5,708.8 729.5,711.5 C 736.4,714.2 747.3,713.6 752.4,718.3 C 757.5,722.9 759.2,732.3 760.0,739.3 C 760.8,746.2 757.4,753.1 757.3,760.0 Z" fill="#359FBE" stroke="#0c2138" stroke-width="1.4" opacity="0.97"/>
<path d="M 737.2,760.0 C 737.0,764.9 742.2,769.7 742.0,774.5 C 741.8,779.3 739.5,785.5 736.0,788.7 C 732.4,791.8 725.1,791.1 720.4,793.6 C 715.8,796.1 712.7,802.8 708.1,803.6 C 703.5,804.4 697.8,799.7 692.9,798.4 C 687.9,797.0 683.2,797.2 678.4,795.5 C 673.7,793.8 666.9,792.1 664.5,788.3 C 662.0,784.5 664.0,777.3 663.7,772.5 C 663.5,767.8 663.2,764.2 663.2,760.0 C 663.2,755.8 662.6,751.3 664.0,747.6 C 665.5,743.8 669.3,741.1 671.9,737.6 C 674.4,734.0 675.8,728.3 679.4,726.2 C 683.0,724.0 688.9,724.9 693.5,724.7 C 698.0,724.5 702.1,724.6 706.5,725.0 C 710.9,725.4 715.7,725.6 719.9,727.3 C 724.0,729.0 727.3,732.2 731.2,735.1 C 735.1,738.1 742.2,740.9 743.2,745.1 C 744.2,749.2 737.4,755.1 737.2,760.0 Z" fill="#86E6CF" stroke="#0c2138" stroke-width="1.4" opacity="0.97"/>
<path d="M 290.1,700.0 C 289.6,711.1 300.9,722.1 300.4,732.9 C 300.0,743.7 295.1,757.7 287.4,765.0 C 279.7,772.2 264.0,770.6 254.0,776.2 C 244.0,781.9 237.3,797.1 227.4,798.9 C 217.5,800.7 205.3,790.1 194.7,787.0 C 184.0,783.9 173.8,784.2 163.6,780.4 C 153.4,776.6 138.8,772.8 133.5,764.2 C 128.3,755.5 132.4,739.1 131.9,728.4 C 131.5,717.7 130.7,709.4 130.8,700.0 C 130.9,690.6 129.4,680.3 132.5,671.8 C 135.6,663.3 143.9,657.2 149.4,649.1 C 154.9,641.1 158.0,628.1 165.7,623.3 C 173.5,618.4 186.2,620.5 195.9,620.1 C 205.6,619.6 214.5,619.7 224.0,620.7 C 233.5,621.7 243.9,622.1 252.8,625.9 C 261.6,629.8 268.8,636.9 277.2,643.6 C 285.5,650.3 300.8,656.8 303.0,666.2 C 305.1,675.6 290.5,688.9 290.1,700.0 Z" fill="#173E60" stroke="#0c2138" stroke-width="1.4" opacity="0.97"/>
<path d="M 276.0,700.0 C 278.1,707.1 277.6,716.6 275.0,723.7 C 272.5,730.8 265.7,736.5 260.6,742.5 C 255.5,748.5 251.2,757.4 244.3,759.5 C 237.5,761.6 227.3,754.5 219.7,755.0 C 212.1,755.5 205.7,762.8 199.0,762.4 C 192.3,762.1 185.1,757.0 179.5,752.8 C 173.9,748.7 170.9,742.4 165.3,737.5 C 159.8,732.6 148.6,729.5 146.2,723.2 C 143.7,717.0 150.9,707.8 150.7,700.0 C 150.4,692.2 142.2,682.6 144.5,676.1 C 146.7,669.7 158.5,666.6 164.1,661.5 C 169.8,656.4 172.8,650.0 178.5,645.5 C 184.2,641.0 191.3,636.3 198.4,634.5 C 205.6,632.6 215.1,631.3 221.6,634.4 C 228.1,637.4 230.9,648.7 237.4,652.6 C 243.8,656.5 256.3,652.9 260.5,657.7 C 264.6,662.4 259.8,673.9 262.4,680.9 C 265.0,688.0 273.9,692.9 276.0,700.0 Z" fill="#359FBE" stroke="#0c2138" stroke-width="1.4" opacity="0.97"/>
<path d="M 245.8,700.0 C 245.4,703.7 240.7,707.1 238.8,710.5 C 236.8,713.8 235.8,716.8 233.9,720.1 C 232.1,723.4 230.6,728.4 227.6,730.4 C 224.5,732.4 219.7,731.0 215.7,732.2 C 211.6,733.3 207.4,737.4 203.4,737.3 C 199.4,737.3 195.3,734.0 191.6,731.8 C 187.9,729.6 183.5,727.5 181.3,724.1 C 179.1,720.7 180.0,715.4 178.6,711.4 C 177.2,707.4 173.1,703.9 172.9,700.0 C 172.7,696.1 175.9,692.1 177.3,688.1 C 178.7,684.1 178.8,678.9 181.5,676.1 C 184.3,673.4 190.0,673.5 193.7,671.8 C 197.4,670.1 200.3,666.7 204.0,665.9 C 207.7,665.1 212.1,666.0 215.8,666.8 C 219.6,667.7 223.4,669.1 226.7,671.1 C 230.0,673.0 233.0,675.7 235.5,678.6 C 237.9,681.6 239.7,685.0 241.4,688.6 C 243.2,692.1 246.3,696.3 245.8,700.0 Z" fill="#86E6CF" stroke="#0c2138" stroke-width="1.4" opacity="0.97"/>
<path d="M 323.4,360.0 C 322.4,367.5 312.9,374.6 308.9,381.4 C 304.8,388.3 302.8,394.3 299.0,401.1 C 295.2,407.9 292.2,418.2 286.0,422.3 C 279.7,426.4 269.8,423.5 261.6,425.9 C 253.4,428.2 244.7,436.5 236.5,436.4 C 228.3,436.3 219.9,429.7 212.4,425.2 C 204.8,420.6 195.7,416.2 191.3,409.3 C 186.8,402.3 188.6,391.6 185.7,383.4 C 182.8,375.2 174.4,368.0 174.0,360.0 C 173.6,352.0 180.1,343.8 183.1,335.6 C 186.0,327.5 186.2,316.7 191.8,311.1 C 197.4,305.6 209.0,305.7 216.6,302.2 C 224.3,298.7 230.1,291.9 237.7,290.2 C 245.2,288.5 254.2,290.4 262.0,292.1 C 269.7,293.9 277.5,296.7 284.2,300.8 C 290.9,304.8 297.1,310.3 302.1,316.3 C 307.1,322.2 310.8,329.3 314.3,336.6 C 317.9,343.9 324.3,352.5 323.4,360.0 Z" fill="#173E60" stroke="#0c2138" stroke-width="1.4" opacity="0.97"/>
<path d="M 303.4,360.0 C 303.8,365.1 295.8,370.5 293.0,375.6 C 290.2,380.8 290.1,387.0 286.6,390.7 C 283.1,394.4 276.4,394.0 271.9,397.9 C 267.3,401.7 264.4,412.8 259.5,413.7 C 254.5,414.6 248.2,405.0 242.4,403.3 C 236.6,401.6 229.8,405.6 224.8,403.7 C 219.7,401.8 215.8,396.2 212.1,391.8 C 208.3,387.5 203.6,382.7 202.1,377.4 C 200.5,372.1 202.2,365.6 202.8,360.0 C 203.5,354.4 204.2,349.0 206.0,344.0 C 207.9,339.0 210.2,333.3 214.0,329.8 C 217.7,326.2 223.9,325.3 228.5,322.8 C 233.2,320.3 237.1,315.9 242.0,314.7 C 246.9,313.4 252.2,315.1 257.9,315.2 C 263.5,315.3 271.1,312.8 275.9,315.1 C 280.7,317.5 284.0,324.4 286.5,329.4 C 288.9,334.4 287.8,340.1 290.6,345.2 C 293.5,350.3 303.1,354.9 303.4,360.0 Z" fill="#359FBE" stroke="#0c2138" stroke-width="1.4" opacity="0.97"/>
<path d="M 275.4,360.0 C 275.7,363.0 277.0,366.9 275.8,369.4 C 274.5,371.9 269.6,372.2 267.8,374.9 C 266.0,377.7 267.1,383.7 265.0,385.9 C 262.8,388.2 258.4,387.8 255.0,388.4 C 251.6,389.0 247.7,390.7 244.8,389.6 C 241.9,388.5 239.8,383.9 237.5,381.6 C 235.3,379.3 232.8,378.0 231.2,375.8 C 229.6,373.5 228.8,370.7 227.9,368.0 C 226.9,365.4 225.5,362.7 225.5,360.0 C 225.6,357.3 227.6,355.0 228.1,352.0 C 228.6,349.0 227.1,344.4 228.6,342.0 C 230.1,339.7 234.4,339.5 237.2,337.8 C 239.9,336.0 242.0,332.6 245.0,331.7 C 248.0,330.7 252.0,331.0 254.9,332.0 C 257.9,333.1 260.5,335.8 262.8,337.9 C 265.1,339.9 266.7,342.2 268.6,344.4 C 270.5,346.6 272.9,348.7 274.0,351.3 C 275.1,353.9 275.1,357.0 275.4,360.0 Z" fill="#86E6CF" stroke="#0c2138" stroke-width="1.4" opacity="0.97"/>
<text x="450" y="565" fill="#06243a" font-family="'DM Sans', sans-serif" font-weight="700" font-size="17" text-anchor="middle">14 m</text>
<text x="450" y="430" fill="#06243a" font-family="'DM Sans', sans-serif" font-weight="700" font-size="17" text-anchor="middle">22 m</text>
<text x="450" y="320" fill="#06243a" font-family="'DM Sans', sans-serif" font-weight="700" font-size="17" text-anchor="middle">30 m</text>
<text x="720" y="435" fill="#06243a" font-family="'DM Sans', sans-serif" font-weight="700" font-size="17" text-anchor="middle">26 m</text>
<text x="700" y="765" fill="#06243a" font-family="'DM Sans', sans-serif" font-weight="700" font-size="17" text-anchor="middle">24 m</text>
<text x="210" y="705" fill="#06243a" font-family="'DM Sans', sans-serif" font-weight="700" font-size="17" text-anchor="middle">30 m</text>
<text x="250" y="365" fill="#06243a" font-family="'DM Sans', sans-serif" font-weight="700" font-size="17" text-anchor="middle">33 m</text>
<text x="450" y="920" fill="#06243a" font-family="'DM Sans', sans-serif" font-weight="700" font-size="17" text-anchor="middle">36 m</text>
<g transform="translate(560,712)"><circle r="20" fill="none" stroke="#f6a8c0" stroke-width="2.4" stroke-dasharray="4 4"/><circle r="6" fill="#f6a8c0"/><text x="0" y="-30" text-anchor="middle" fill="#f6c2d2" font-family="'DM Sans', sans-serif" font-weight="700" font-size="15">ANEMONE BED</text></g>
<path d="M 470,880 C 250,840 210,620 320,470 C 430,330 640,360 690,520 C 740,690 560,790 470,760" fill="none" stroke="#f2e6c0" stroke-width="3.4" stroke-dasharray="2 11" stroke-linecap="round" marker-end="url(#route)"/>
<path d="M 760,250 C 780,420 730,720 690,880" fill="none" stroke="#7fd2e6" stroke-width="3" marker-end="url(#arrow)" opacity="0.9"/>
<path d="M 805,320 C 825,420 775,720 735,880" fill="none" stroke="#7fd2e6" stroke-width="3" marker-end="url(#arrow)" opacity="0.9"/>
<text x="828" y="560" fill="#7fd2e6" font-family="'DM Sans', sans-serif" font-weight="700" font-size="16" transform="rotate(90 828 560)">CAN BE STRONG</text>
<g transform="translate(470,850)">
      <line x1="0" y1="0" x2="0" y2="40" stroke="#9fc0d2" stroke-width="2" stroke-dasharray="3 3"/>
      <circle cx="0" cy="-6" r="9" fill="#f4c95d" stroke="#0c2138" stroke-width="1.6"/>
      <circle cx="0" cy="40" r="3.5" fill="#9fc0d2"/>
      <text x="14" y="-2" fill="#e7eef3" font-family="'DM Sans', sans-serif" font-weight="700" font-size="15">MOORING</text>
    </g>

<g transform="translate(790,130)">
  <circle r="40" fill="#0c2236" stroke="#3f7ea8" stroke-width="1.3"/>
  <circle r="30" fill="none" stroke="#234a66" stroke-width="0.8"/>
  <path d="M0,-34 L8,4 L0,-6 L-8,4 Z" fill="#5fb4d6"/>
  <path d="M0,34 L8,-4 L0,6 L-8,-4 Z" fill="#26486a"/>
  <text x="0" y="-44" text-anchor="middle" fill="#cfe6f2" font-family="'DM Sans', sans-serif" font-weight="700" font-size="15">N</text>
</g>
<g transform="translate(70,1060)"><rect x="0" y="0" width="46" height="9" fill="#dfe9ef" stroke="#dfe9ef" stroke-width="0.8"/><rect x="46" y="0" width="46" height="9" fill="#1a3550" stroke="#dfe9ef" stroke-width="0.8"/><rect x="92" y="0" width="46" height="9" fill="#dfe9ef" stroke="#dfe9ef" stroke-width="0.8"/><rect x="138" y="0" width="46" height="9" fill="#1a3550" stroke="#dfe9ef" stroke-width="0.8"/><text x="0" y="26" fill="#9fc0d2" font-family="'DM Sans', sans-serif" font-weight="600" font-size="14">0</text><text x="184" y="26" fill="#9fc0d2" font-family="'DM Sans', sans-serif" font-weight="600" font-size="14" text-anchor="end">60 m</text></g>
</svg>
