  <svg viewBox="0 0 900 1180" xmlns="http://www.w3.org/2000/svg">
  <defs>
    <radialGradient id="water" cx="50%" cy="38%" r="78%">
      <stop offset="0%" stop-color="#123c5b"/>
      <stop offset="62%" stop-color="#0d2b44"/>
      <stop offset="100%" stop-color="#081d31"/>
    </radialGradient>
    <marker id="arrow" markerWidth="9" markerHeight="9" refX="6" refY="3" orient="auto">
      <path d="M0,0 L7,3 L0,6 Z" fill="#7fd2e6"/>
    </marker>
    <marker id="route" markerWidth="9" markerHeight="9" refX="5" refY="3" orient="auto">
      <path d="M0,0 L6,3 L0,6 Z" fill="#f2e6c0"/>
    </marker>
  </defs>
  <rect x="6" y="6" width="888" height="1168" rx="26" fill="url(#water)" stroke="#2f5d7d" stroke-width="2"/>
  <path d="M 731.1,600.0 C 709.3,642.6 697.6,658.6 692.8,700.6 C 687.9,742.6 720.5,815.7 702.0,852.0 C 683.4,888.2 623.7,901.3 581.7,918.0 C 539.7,934.7 491.5,958.1 450.0,952.2 C 408.5,946.3 370.8,903.5 332.9,882.8 C 294.9,862.0 263.5,849.6 222.3,827.7 C 181.2,805.7 111.7,788.8 85.9,750.8 C 60.1,712.9 51.7,643.7 67.5,600.0 C 83.4,556.3 151.7,523.0 181.0,488.6 C 210.3,454.1 214.9,414.6 243.2,393.2 C 271.4,371.7 316.1,386.9 350.6,360.0 C 385.1,333.1 417.2,231.0 450.0,231.8 C 482.8,232.6 504.9,346.1 547.3,365.1 C 589.7,384.1 658.2,332.4 704.2,345.8 C 750.3,359.1 819.3,402.8 823.8,445.2 C 828.3,487.6 752.9,557.4 731.1,600.0 Z" fill="#caa86a" opacity="0.08"/>
<path d="M 752.6,580.0 C 753.2,614.5 739.1,652.1 725.6,684.3 C 712.1,716.6 689.6,740.4 671.6,773.4 C 653.6,806.4 645.7,860.8 617.8,882.3 C 590.0,903.8 542.0,897.9 504.7,902.5 C 467.4,907.0 429.3,916.3 394.1,909.6 C 358.9,902.9 322.7,883.4 293.4,862.2 C 264.0,841.0 242.7,810.2 218.1,782.4 C 193.4,754.6 159.0,729.1 145.2,695.4 C 131.4,661.6 135.7,618.6 135.3,580.0 C 134.8,541.4 130.7,499.2 142.3,463.5 C 153.9,427.9 181.2,396.3 204.9,366.1 C 228.5,335.8 252.5,298.5 284.5,281.8 C 316.5,265.2 360.9,265.9 396.8,266.3 C 432.8,266.8 467.2,275.4 500.1,284.4 C 533.0,293.4 561.2,307.2 594.1,320.3 C 627.1,333.5 676.8,337.4 698.1,363.5 C 719.4,389.6 712.8,441.0 721.9,477.1 C 731.0,513.1 752.0,545.5 752.6,580.0 Z" fill="#173E60" stroke="#0c2138" stroke-width="1.4"/>
<path d="M 707.0,580.0 C 702.6,608.5 675.0,633.9 662.6,660.5 C 650.3,687.1 648.6,717.6 632.9,739.6 C 617.1,761.6 591.0,774.6 568.1,792.7 C 545.2,810.8 522.6,839.4 495.5,848.2 C 468.3,856.9 435.1,849.3 405.1,845.1 C 375.0,840.9 337.0,841.5 315.2,822.8 C 293.4,804.2 290.4,759.2 274.3,733.3 C 258.2,707.4 227.2,693.1 218.7,667.5 C 210.3,642.0 221.9,608.6 223.5,580.0 C 225.1,551.4 222.5,524.0 228.3,496.1 C 234.1,468.2 240.2,432.7 258.3,412.7 C 276.4,392.7 311.7,388.4 336.8,376.2 C 362.0,363.9 382.9,349.4 409.2,339.4 C 435.5,329.4 466.9,314.0 494.7,316.3 C 522.5,318.5 553.4,335.2 576.1,352.8 C 598.8,370.5 612.0,399.4 630.8,422.2 C 649.6,445.0 676.4,463.2 689.1,489.5 C 701.8,515.8 711.4,551.5 707.0,580.0 Z" fill="#21567F" stroke="#0c2138" stroke-width="1.4"/>
<path d="M 631.5,580.0 C 630.8,604.9 651.9,633.2 645.3,653.9 C 638.8,674.6 608.3,686.7 592.3,704.2 C 576.3,721.7 567.0,744.2 549.3,758.8 C 531.5,773.4 508.6,785.5 485.9,791.9 C 463.3,798.2 435.7,802.4 413.2,796.8 C 390.7,791.3 370.3,772.3 350.9,758.4 C 331.5,744.6 308.6,732.7 296.8,713.7 C 285.0,694.6 287.5,666.6 280.1,644.3 C 272.8,622.0 254.9,602.3 252.7,580.0 C 250.5,557.7 261.3,534.5 266.9,510.7 C 272.4,486.8 272.3,455.6 286.0,436.9 C 299.7,418.1 327.8,410.2 349.1,398.2 C 370.3,386.1 391.0,368.1 413.5,364.7 C 436.0,361.3 462.6,370.1 484.3,377.9 C 505.9,385.7 521.9,401.7 543.5,411.5 C 565.1,421.4 596.2,421.5 614.0,436.9 C 631.7,452.4 647.0,480.5 650.0,504.3 C 652.9,528.2 632.3,555.1 631.5,580.0 Z" fill="#2A77A2" stroke="#0c2138" stroke-width="1.4"/>
<path d="M 605.1,580.0 C 603.6,599.5 603.9,617.8 599.7,636.7 C 595.5,655.6 592.4,680.5 579.8,693.3 C 567.2,706.0 541.2,706.5 523.9,713.1 C 506.6,719.7 492.4,730.7 475.9,732.9 C 459.5,735.2 441.6,730.2 425.1,726.6 C 408.7,723.0 391.1,720.0 377.1,711.4 C 363.0,702.8 351.7,688.4 340.9,675.2 C 330.0,662.1 319.9,648.2 311.7,632.3 C 303.5,616.5 295.7,599.0 291.6,580.0 C 287.4,561.0 281.5,536.6 287.0,518.3 C 292.4,500.0 310.0,483.1 324.3,470.3 C 338.6,457.4 356.5,449.3 372.9,441.2 C 389.4,433.0 405.5,426.1 423.1,421.2 C 440.7,416.4 461.3,408.4 478.5,412.0 C 495.7,415.6 512.5,430.7 526.3,442.6 C 540.0,454.5 547.0,470.5 560.7,483.4 C 574.4,496.3 601.2,503.9 608.6,520.0 C 616.0,536.1 606.6,560.5 605.1,580.0 Z" fill="#359FBE" stroke="#0c2138" stroke-width="1.4"/>
<path d="M 564.5,580.0 C 563.7,594.5 567.5,610.3 562.5,622.6 C 557.4,634.8 543.3,643.2 534.2,653.5 C 525.2,663.8 518.9,678.1 508.1,684.6 C 497.2,691.1 481.9,691.3 469.1,692.4 C 456.2,693.4 443.9,692.4 431.2,690.9 C 418.5,689.4 403.6,689.5 392.6,683.4 C 381.6,677.3 373.6,664.5 365.1,654.1 C 356.6,643.7 348.3,633.4 341.5,621.1 C 334.7,608.7 323.1,593.3 324.2,580.0 C 325.2,566.7 342.4,555.0 347.7,541.3 C 353.0,527.6 348.0,508.0 355.8,497.8 C 363.6,487.5 382.4,487.8 394.4,479.8 C 406.4,471.8 415.0,454.6 427.9,449.8 C 440.8,445.1 458.7,446.6 471.8,451.3 C 484.9,456.0 493.8,471.0 506.5,478.2 C 519.3,485.3 538.1,484.6 548.3,494.2 C 558.5,503.7 565.0,521.2 567.7,535.5 C 570.4,549.8 565.4,565.5 564.5,580.0 Z" fill="#54C2C9" stroke="#0c2138" stroke-width="1.4"/>
<path d="M 542.7,580.0 C 541.2,590.5 533.5,600.2 529.2,610.0 C 524.9,619.7 522.6,629.7 517.0,638.5 C 511.5,647.4 504.9,658.9 496.1,663.0 C 487.3,667.2 474.3,662.4 464.1,663.3 C 453.9,664.2 444.7,669.1 435.0,668.4 C 425.4,667.6 415.7,663.0 406.3,658.8 C 396.8,654.5 383.1,651.1 378.2,642.6 C 373.3,634.1 377.9,618.2 376.7,607.7 C 375.6,597.3 372.2,589.5 371.4,580.0 C 370.6,570.5 370.7,560.7 372.1,550.5 C 373.5,540.3 374.5,527.7 379.8,518.8 C 385.2,509.9 394.7,500.6 404.0,497.2 C 413.4,493.8 425.8,500.5 436.2,498.3 C 446.5,496.2 456.7,483.9 466.2,484.5 C 475.7,485.2 483.9,496.7 493.2,502.1 C 502.5,507.5 514.6,509.7 522.0,517.1 C 529.5,524.6 534.4,536.3 537.8,546.8 C 541.3,557.2 544.1,569.5 542.7,580.0 Z" fill="#86E6CF" stroke="#0c2138" stroke-width="1.4"/>
<g transform="translate(450,580)"><path d="M -26,16 L 0,-30 L 26,16 Z" fill="#3a4b58" stroke="#cfe6f2" stroke-width="2"/><text x="0" y="40" text-anchor="middle" fill="#06243a" font-family="'DM Sans', sans-serif" font-weight="800" font-size="16">0 m</text></g>
<text x="450" y="484" fill="#06243a" font-family="'DM Sans', sans-serif" font-weight="700" font-size="17" text-anchor="middle"></text>
<text x="640" y="580" fill="#06243a" font-family="'DM Sans', sans-serif" font-weight="700" font-size="17" text-anchor="middle">12 m</text>
<text x="720" y="580" fill="#06243a" font-family="'DM Sans', sans-serif" font-weight="700" font-size="17" text-anchor="middle">22 m</text>
<text x="450" y="905" fill="#06243a" font-family="'DM Sans', sans-serif" font-weight="700" font-size="17" text-anchor="middle">30 m</text>
<text x="450" y="990" fill="#06243a" font-family="'DM Sans', sans-serif" font-weight="700" font-size="17" text-anchor="middle">40 m  (sand)</text>
<g transform="translate(300,470)"><circle r="26" fill="#0c2236" stroke="#f4c95d" stroke-width="2.6"/><path d="M -7,11 L -7,-9 L 7,-9 L 7,11" fill="none" stroke="#f4c95d" stroke-width="3"/><line x1="-26" y1="0" x2="-150" y2="-70" stroke="#f4c95d" stroke-width="1.6"/></g>
<g transform="translate(70,330)"><rect x="0" y="0" width="250" height="78" rx="10" fill="#0c2236" stroke="#f4c95d" stroke-width="1.6"/><text x="18" y="32" fill="#f4c95d" font-family="'Playfair Display', serif" font-size="24">THE CHIMNEY</text><text x="18" y="56" fill="#cfe6f2" font-family="'DM Sans', sans-serif" font-weight="600" font-size="16">vertical swim-through</text><text x="18" y="72" fill="#9fc0d2" font-family="'DM Sans', sans-serif" font-weight="500" font-size="14">enter 18 m  /  exit 6 m</text></g>
<path d="M 470,870 C 220,820 210,520 380,360 C 560,200 760,400 720,600 C 690,760 560,820 480,790" fill="none" stroke="#f2e6c0" stroke-width="3.4" stroke-dasharray="2 11" stroke-linecap="round" marker-end="url(#route)"/>
<g transform="translate(470,845)">
      <line x1="0" y1="0" x2="0" y2="40" stroke="#9fc0d2" stroke-width="2" stroke-dasharray="3 3"/>
      <circle cx="0" cy="-6" r="9" fill="#f4c95d" stroke="#0c2138" stroke-width="1.6"/>
      <circle cx="0" cy="40" r="3.5" fill="#9fc0d2"/>
      <text x="14" y="-2" fill="#e7eef3" font-family="'DM Sans', sans-serif" font-weight="700" font-size="15">MOORING</text>
    </g>

<g transform="translate(790,130)">
  <circle r="40" fill="#0c2236" stroke="#3f7ea8" stroke-width="1.3"/>
  <circle r="30" fill="none" stroke="#234a66" stroke-width="0.8"/>
  <path d="M0,-34 L8,4 L0,-6 L-8,4 Z" fill="#5fb4d6"/>
  <path d="M0,34 L8,-4 L0,6 L-8,-4 Z" fill="#26486a"/>
  <text x="0" y="-44" text-anchor="middle" fill="#cfe6f2" font-family="'DM Sans', sans-serif" font-weight="700" font-size="15">N</text>
</g>
<g transform="translate(70,1075)"><rect x="0" y="0" width="46" height="9" fill="#dfe9ef" stroke="#dfe9ef" stroke-width="0.8"/><rect x="46" y="0" width="46" height="9" fill="#1a3550" stroke="#dfe9ef" stroke-width="0.8"/><rect x="92" y="0" width="46" height="9" fill="#dfe9ef" stroke="#dfe9ef" stroke-width="0.8"/><rect x="138" y="0" width="46" height="9" fill="#1a3550" stroke="#dfe9ef" stroke-width="0.8"/><text x="0" y="26" fill="#9fc0d2" font-family="'DM Sans', sans-serif" font-weight="600" font-size="14">0</text><text x="184" y="26" fill="#9fc0d2" font-family="'DM Sans', sans-serif" font-weight="600" font-size="14" text-anchor="end">50 m</text></g>
</svg>
