  <svg viewBox="0 0 900 1180" xmlns="http://www.w3.org/2000/svg">
  <defs>
    <radialGradient id="water" cx="50%" cy="38%" r="78%">
      <stop offset="0%" stop-color="#123c5b"/>
      <stop offset="62%" stop-color="#0d2b44"/>
      <stop offset="100%" stop-color="#081d31"/>
    </radialGradient>
    <marker id="arrow" markerWidth="9" markerHeight="9" refX="6" refY="3" orient="auto">
      <path d="M0,0 L7,3 L0,6 Z" fill="#7fd2e6"/>
    </marker>
    <marker id="route" markerWidth="9" markerHeight="9" refX="5" refY="3" orient="auto">
      <path d="M0,0 L6,3 L0,6 Z" fill="#f2e6c0"/>
    </marker>
  </defs>
  <rect x="6" y="6" width="888" height="1168" rx="26" fill="url(#water)" stroke="#2f5d7d" stroke-width="2"/>
  <path d="M 849.0,600.0 C 838.2,648.9 763.3,688.9 735.2,732.7 C 707.1,776.6 711.7,835.3 680.4,862.9 C 649.2,890.6 589.5,866.8 547.7,898.4 C 506.0,930.1 469.4,1052.4 430.0,1052.9 C 390.6,1053.3 356.6,928.8 311.3,901.0 C 265.9,873.2 195.5,911.0 157.7,885.9 C 119.9,860.8 104.1,798.0 84.4,750.3 C 64.6,702.7 34.9,648.3 39.1,600.0 C 43.3,551.7 84.5,502.9 109.3,460.5 C 134.1,418.1 156.2,378.2 187.7,345.5 C 219.1,312.9 257.4,274.6 297.8,264.8 C 338.1,254.9 386.7,284.8 430.0,286.6 C 473.3,288.5 519.2,264.3 557.8,276.0 C 596.5,287.6 621.4,329.5 661.7,356.7 C 702.1,383.9 768.7,398.5 800.0,439.1 C 831.2,479.7 859.8,551.1 849.0,600.0 Z" fill="#caa86a" opacity="0.12"/>
<path d="M 537.4,420.0 C 533.9,443.5 535.2,464.1 530.4,487.1 C 525.6,510.1 524.7,541.4 508.6,557.9 C 492.6,574.3 457.7,577.0 434.1,585.8 C 410.4,594.6 390.1,605.9 366.5,610.7 C 343.0,615.4 314.9,620.8 292.7,614.6 C 270.6,608.4 254.3,585.3 233.6,573.6 C 212.9,561.9 186.6,558.8 168.6,544.6 C 150.7,530.4 136.8,509.1 126.0,488.3 C 115.2,467.5 99.4,441.2 104.0,420.0 C 108.6,398.8 141.3,380.5 153.5,360.9 C 165.7,341.3 163.6,317.2 177.4,302.2 C 191.1,287.1 217.3,285.1 236.2,270.5 C 255.0,255.9 268.6,222.8 290.6,214.4 C 312.6,206.0 346.3,210.5 368.3,220.2 C 390.3,229.9 398.7,262.6 422.5,272.6 C 446.3,282.6 489.6,268.0 511.0,280.2 C 532.5,292.5 546.8,322.6 551.2,345.9 C 555.6,369.2 540.9,396.5 537.4,420.0 Z" fill="#173E60" stroke="#0c2138" stroke-width="1.4" opacity="0.97"/>
<path d="M 506.3,420.0 C 505.1,439.8 509.3,459.9 503.6,478.1 C 497.8,496.4 487.3,517.8 471.8,529.5 C 456.3,541.2 429.6,543.1 410.5,548.2 C 391.3,553.4 375.3,555.8 356.9,560.3 C 338.5,564.9 318.6,576.7 300.2,575.5 C 281.8,574.3 266.0,560.1 246.5,553.1 C 227.0,546.1 198.3,545.8 183.1,533.4 C 167.8,521.0 160.9,497.5 155.0,478.6 C 149.1,459.7 146.9,439.2 147.9,420.0 C 148.8,400.8 154.0,381.5 160.7,363.3 C 167.5,345.1 173.6,322.6 188.4,310.7 C 203.2,298.7 230.9,299.8 249.5,291.7 C 268.0,283.5 281.6,264.8 299.7,261.7 C 317.8,258.7 336.7,273.0 358.1,273.3 C 379.5,273.7 412.7,254.7 428.1,263.7 C 443.5,272.7 436.6,311.1 450.3,327.1 C 464.1,343.1 501.2,344.1 510.6,359.5 C 519.9,375.0 507.4,400.2 506.3,420.0 Z" fill="#21567F" stroke="#0c2138" stroke-width="1.4" opacity="0.97"/>
<path d="M 465.8,420.0 C 468.2,435.1 476.0,452.8 472.7,467.8 C 469.5,482.8 456.9,496.8 446.3,509.8 C 435.7,522.8 424.6,540.8 409.0,545.9 C 393.5,551.1 370.2,541.2 353.1,540.6 C 336.0,539.9 321.4,544.7 306.6,542.1 C 291.8,539.5 277.5,531.9 264.2,524.9 C 250.9,517.8 240.0,509.0 226.9,499.6 C 213.8,490.2 190.2,481.6 185.6,468.4 C 180.9,455.1 197.8,435.7 199.0,420.0 C 200.2,404.3 188.0,387.3 192.7,374.0 C 197.4,360.8 215.8,351.2 227.3,340.7 C 238.7,330.1 248.4,319.0 261.4,310.7 C 274.4,302.4 289.3,296.6 305.3,291.1 C 321.3,285.5 340.8,275.5 357.4,277.2 C 373.9,278.9 392.9,290.0 404.5,301.3 C 416.1,312.6 418.0,332.5 427.0,345.1 C 435.9,357.8 451.8,364.6 458.2,377.1 C 464.7,389.5 463.4,404.9 465.8,420.0 Z" fill="#359FBE" stroke="#0c2138" stroke-width="1.4" opacity="0.97"/>
<path d="M 430.9,420.0 C 430.4,432.6 443.0,445.7 441.1,457.2 C 439.2,468.7 427.6,478.6 419.5,489.1 C 411.4,499.5 404.5,515.3 392.6,519.8 C 380.8,524.2 361.8,516.5 348.3,515.7 C 334.9,515.0 324.7,515.5 311.7,515.3 C 298.7,515.2 282.3,519.3 270.4,515.0 C 258.5,510.6 247.2,499.4 240.4,489.2 C 233.6,478.9 234.5,465.1 229.8,453.5 C 225.1,442.0 212.7,431.3 212.3,420.0 C 211.8,408.7 223.0,397.5 227.3,385.6 C 231.5,373.7 229.0,356.5 237.7,348.8 C 246.4,341.1 267.0,343.2 279.4,339.4 C 291.8,335.5 299.9,330.8 311.9,325.5 C 323.9,320.2 339.5,306.2 351.5,307.6 C 363.6,309.0 374.2,325.4 384.1,333.8 C 394.0,342.1 400.7,349.7 410.7,357.7 C 420.7,365.7 440.6,371.5 443.9,381.9 C 447.3,392.2 431.3,407.4 430.9,420.0 Z" fill="#54C2C9" stroke="#0c2138" stroke-width="1.4" opacity="0.97"/>
<path d="M 419.5,420.0 C 416.6,428.2 399.6,433.6 395.5,441.9 C 391.4,450.3 399.7,464.1 394.9,470.1 C 390.0,476.1 374.6,472.7 366.4,477.9 C 358.1,483.2 353.7,500.6 345.6,501.4 C 337.5,502.3 327.8,485.2 317.9,483.2 C 308.0,481.3 294.8,492.2 286.2,489.9 C 277.5,487.6 272.3,476.5 266.0,469.4 C 259.6,462.3 252.4,455.7 248.0,447.4 C 243.7,439.2 237.8,428.5 239.8,420.0 C 241.8,411.5 254.8,404.1 260.1,396.6 C 265.4,389.1 266.8,382.1 271.4,374.8 C 276.1,367.5 280.4,356.8 287.9,353.0 C 295.5,349.1 307.8,352.0 316.9,351.8 C 326.1,351.7 334.6,350.6 343.0,352.1 C 351.4,353.7 358.1,358.2 367.1,360.9 C 376.1,363.6 389.3,363.2 396.8,368.4 C 404.4,373.7 408.5,383.8 412.3,392.4 C 416.1,401.0 422.3,411.8 419.5,420.0 Z" fill="#86E6CF" stroke="#0c2138" stroke-width="1.4" opacity="0.97"/>
<path d="M 763.2,560.0 C 764.7,579.7 760.5,601.8 753.1,620.5 C 745.8,639.2 735.9,661.9 719.3,672.2 C 702.7,682.5 671.9,674.4 653.6,682.3 C 635.2,690.2 626.3,714.6 609.3,719.7 C 592.4,724.8 570.7,716.5 551.9,712.9 C 533.2,709.3 511.2,708.4 496.9,698.3 C 482.5,688.1 475.7,666.8 465.8,652.0 C 455.8,637.3 445.4,625.2 437.4,609.8 C 429.3,594.5 417.6,576.7 417.4,560.0 C 417.2,543.3 429.9,526.5 436.2,509.8 C 442.5,493.0 443.2,471.0 455.1,459.4 C 467.0,447.7 491.1,446.2 507.7,439.8 C 524.3,433.3 537.3,428.2 554.4,420.8 C 571.5,413.4 592.5,394.7 610.2,395.5 C 627.9,396.3 644.7,415.2 660.8,425.6 C 676.9,436.0 692.9,445.0 706.8,457.8 C 720.8,470.7 735.1,485.5 744.5,502.5 C 753.9,519.6 761.8,540.3 763.2,560.0 Z" fill="#173E60" stroke="#0c2138" stroke-width="1.4" opacity="0.97"/>
<path d="M 727.1,560.0 C 726.5,576.8 730.8,596.7 722.6,609.8 C 714.4,623.0 688.6,625.4 678.0,638.9 C 667.4,652.5 671.4,683.9 658.7,690.9 C 646.1,698.0 619.6,680.2 602.3,681.3 C 584.9,682.5 568.8,700.6 554.7,697.7 C 540.6,694.7 532.5,671.3 517.7,663.6 C 502.9,656.0 475.5,662.1 466.0,651.8 C 456.6,641.5 466.4,616.9 460.9,601.6 C 455.4,586.3 436.3,575.0 433.1,560.0 C 429.8,545.0 435.9,526.9 441.3,511.5 C 446.8,496.2 454.1,479.0 465.8,468.0 C 477.5,457.1 496.7,454.6 511.4,445.9 C 526.0,437.1 537.5,421.4 553.5,415.6 C 569.5,409.9 592.4,404.8 607.3,411.5 C 622.2,418.1 629.4,445.3 642.7,455.7 C 656.1,466.0 673.3,464.7 687.3,473.6 C 701.3,482.4 720.0,494.4 726.6,508.8 C 733.3,523.2 727.8,543.2 727.1,560.0 Z" fill="#21567F" stroke="#0c2138" stroke-width="1.4" opacity="0.97"/>
<path d="M 690.2,560.0 C 691.6,573.4 701.4,588.8 698.9,601.5 C 696.3,614.3 686.0,628.8 675.0,636.5 C 664.0,644.2 644.9,640.7 632.7,647.6 C 620.5,654.5 613.9,674.1 601.7,678.0 C 589.5,682.0 571.5,677.2 559.5,671.5 C 547.6,665.7 542.7,648.9 529.8,643.4 C 517.0,637.9 490.9,646.6 482.5,638.5 C 474.2,630.5 481.6,608.1 479.8,595.0 C 478.0,581.9 472.7,571.9 471.9,560.0 C 471.1,548.1 472.0,535.3 475.1,523.4 C 478.3,511.4 481.9,496.3 490.8,488.1 C 499.7,480.0 517.2,481.4 528.6,474.6 C 540.0,467.8 547.1,452.4 559.3,447.1 C 571.4,441.9 588.5,440.1 601.5,443.1 C 614.5,446.1 625.0,458.2 637.1,465.0 C 649.2,471.9 665.0,475.0 673.9,484.4 C 682.8,493.8 687.7,508.8 690.5,521.4 C 693.2,534.0 688.8,546.6 690.2,560.0 Z" fill="#359FBE" stroke="#0c2138" stroke-width="1.4" opacity="0.97"/>
<path d="M 674.0,560.0 C 674.6,568.7 661.8,578.4 656.5,586.7 C 651.3,595.1 647.6,602.2 642.4,610.3 C 637.2,618.4 633.4,631.4 625.3,635.3 C 617.1,639.2 603.8,631.5 593.6,633.8 C 583.3,636.2 573.7,648.7 563.6,649.5 C 553.4,650.2 540.0,645.3 532.8,638.4 C 525.6,631.5 527.1,616.0 520.4,608.0 C 513.8,600.0 497.9,598.4 493.1,590.4 C 488.3,582.4 491.5,570.1 491.7,560.0 C 491.8,549.9 492.0,540.1 494.1,530.0 C 496.3,519.8 498.4,507.9 504.4,499.1 C 510.4,490.3 520.2,480.8 530.3,477.3 C 540.4,473.9 554.0,479.9 565.0,478.5 C 576.1,477.1 586.3,468.6 596.7,469.1 C 607.1,469.5 617.6,476.2 627.4,481.1 C 637.3,486.1 651.7,489.9 655.9,498.8 C 660.1,507.7 649.8,524.4 652.8,534.6 C 655.8,544.8 673.3,551.3 674.0,560.0 Z" fill="#54C2C9" stroke="#0c2138" stroke-width="1.4" opacity="0.97"/>
<path d="M 645.1,560.0 C 644.9,567.3 643.9,574.4 642.0,581.7 C 640.1,588.9 639.3,598.9 633.7,603.3 C 628.2,607.7 616.2,606.5 608.9,608.0 C 601.5,609.6 596.4,609.9 589.7,612.6 C 582.9,615.3 574.8,624.7 568.2,624.3 C 561.6,623.8 555.8,614.3 550.0,609.9 C 544.2,605.4 539.2,602.0 533.6,597.4 C 527.9,592.8 518.1,588.5 516.3,582.3 C 514.4,576.0 522.7,567.5 522.5,560.0 C 522.2,552.5 513.2,543.7 514.8,537.2 C 516.4,530.8 525.9,525.3 532.1,521.4 C 538.3,517.5 546.2,518.2 552.1,513.7 C 558.1,509.2 561.4,496.6 567.9,494.3 C 574.4,491.9 584.4,496.4 591.1,499.6 C 597.8,502.8 601.1,510.5 607.9,513.6 C 614.8,516.6 626.4,513.8 632.3,517.9 C 638.1,522.0 641.0,530.9 643.1,537.9 C 645.3,545.0 645.3,552.7 645.1,560.0 Z" fill="#86E6CF" stroke="#0c2138" stroke-width="1.4" opacity="0.97"/>
<path d="M 581.4,820.0 C 576.6,835.5 559.2,846.4 553.4,861.3 C 547.6,876.2 553.2,895.1 546.6,909.4 C 539.9,923.8 527.0,938.1 513.5,947.3 C 500.0,956.5 481.7,963.5 465.5,964.5 C 449.3,965.5 432.3,957.4 416.5,953.5 C 400.6,949.5 382.9,949.2 370.2,940.9 C 357.5,932.6 349.8,916.2 340.1,903.8 C 330.4,891.4 315.8,880.5 312.2,866.5 C 308.7,852.5 319.6,835.8 318.8,820.0 C 317.9,804.2 304.6,786.5 307.1,771.6 C 309.6,756.8 322.3,741.3 333.9,731.0 C 345.4,720.6 362.4,716.3 376.3,709.7 C 390.2,703.1 402.5,696.4 417.3,691.2 C 432.1,686.1 450.0,676.6 464.9,678.9 C 479.8,681.1 491.4,697.5 506.5,704.8 C 521.7,712.1 543.1,712.3 555.8,722.9 C 568.4,733.4 578.1,752.0 582.4,768.2 C 586.7,784.4 586.2,804.5 581.4,820.0 Z" fill="#173E60" stroke="#0c2138" stroke-width="1.4" opacity="0.97"/>
<path d="M 551.0,820.0 C 550.6,832.1 542.8,843.8 538.8,856.0 C 534.8,868.1 535.4,885.1 526.8,892.9 C 518.3,900.6 498.7,896.0 487.5,902.3 C 476.3,908.6 470.5,927.6 459.6,930.9 C 448.6,934.2 434.4,924.6 422.0,922.0 C 409.6,919.5 394.4,921.9 384.9,915.4 C 375.4,908.8 371.9,893.0 365.0,882.9 C 358.1,872.9 347.7,865.6 343.4,855.2 C 339.2,844.7 339.3,831.7 339.4,820.0 C 339.5,808.3 341.5,797.1 343.8,785.0 C 346.1,772.8 346.0,756.6 353.1,747.1 C 360.3,737.6 375.8,735.4 386.8,727.9 C 397.8,720.4 407.1,704.4 419.2,701.8 C 431.2,699.2 447.2,706.9 459.0,712.3 C 470.8,717.6 478.8,727.8 489.7,733.9 C 500.6,740.1 515.8,740.9 524.4,749.1 C 533.1,757.3 537.0,771.3 541.4,783.1 C 545.8,794.9 551.4,807.9 551.0,820.0 Z" fill="#2A77A2" stroke="#0c2138" stroke-width="1.4" opacity="0.97"/>
<path d="M 513.2,820.0 C 511.7,829.3 515.1,838.5 512.2,846.3 C 509.3,854.1 501.5,860.1 495.9,866.9 C 490.2,873.6 485.5,881.3 478.5,886.7 C 471.5,892.1 462.8,896.9 454.0,899.3 C 445.2,901.6 434.2,903.5 425.7,901.0 C 417.2,898.4 410.3,889.5 402.9,884.2 C 395.6,878.9 386.8,875.6 381.6,869.0 C 376.4,862.4 376.3,853.0 371.8,844.8 C 367.3,836.7 354.7,828.4 354.3,820.0 C 353.9,811.6 366.4,803.7 369.6,794.4 C 372.7,785.0 367.4,769.9 373.3,764.0 C 379.2,758.1 395.7,761.0 404.8,759.0 C 413.9,757.0 419.9,754.5 428.0,752.0 C 436.1,749.4 445.0,743.4 453.5,743.5 C 461.9,743.7 470.3,749.1 478.8,752.8 C 487.3,756.5 497.5,759.5 504.7,765.8 C 511.8,772.0 520.1,781.3 521.5,790.3 C 523.0,799.4 514.8,810.7 513.2,820.0 Z" fill="#359FBE" stroke="#0c2138" stroke-width="1.4" opacity="0.97"/>
<path d="M 490.7,820.0 C 492.2,825.9 495.6,834.4 492.9,839.3 C 490.2,844.1 479.3,845.2 474.5,849.0 C 469.7,852.7 468.3,857.3 464.2,861.9 C 460.1,866.5 455.6,874.8 450.0,876.6 C 444.4,878.4 436.2,875.4 430.7,872.7 C 425.2,869.9 421.6,863.6 416.8,860.1 C 412.1,856.6 407.2,855.2 402.3,851.7 C 397.3,848.2 389.2,844.6 387.0,839.3 C 384.9,834.0 387.7,825.8 389.5,820.0 C 391.3,814.2 396.5,810.7 397.7,804.6 C 398.9,798.5 393.5,787.8 396.7,783.6 C 399.8,779.5 411.1,782.5 416.8,779.8 C 422.5,777.2 425.4,769.6 430.8,767.6 C 436.2,765.6 443.4,766.5 449.2,767.9 C 455.0,769.3 459.6,773.5 465.4,776.0 C 471.2,778.6 480.9,778.4 484.0,783.1 C 487.1,787.7 483.0,797.8 484.2,803.9 C 485.3,810.1 489.3,814.1 490.7,820.0 Z" fill="#86E6CF" stroke="#0c2138" stroke-width="1.4" opacity="0.97"/>
<text x="330" y="425" fill="#06243a" font-family="'DM Sans', sans-serif" font-weight="700" font-size="17" text-anchor="middle">5 m</text>
<text x="330" y="330" fill="#06243a" font-family="'DM Sans', sans-serif" font-weight="700" font-size="17" text-anchor="middle">9 m</text>
<text x="580" y="565" fill="#06243a" font-family="'DM Sans', sans-serif" font-weight="700" font-size="17" text-anchor="middle">12 m</text>
<text x="580" y="470" fill="#06243a" font-family="'DM Sans', sans-serif" font-weight="700" font-size="17" text-anchor="middle">16 m</text>
<text x="440" y="825" fill="#06243a" font-family="'DM Sans', sans-serif" font-weight="700" font-size="17" text-anchor="middle">15 m</text>
<text x="440" y="745" fill="#06243a" font-family="'DM Sans', sans-serif" font-weight="700" font-size="17" text-anchor="middle">19 m</text>
<path d="M 250,930 C 300,560 280,420 360,360 C 470,300 560,430 600,540 C 640,650 540,760 460,800 C 380,840 330,900 320,950" fill="none" stroke="#f2e6c0" stroke-width="3.4" stroke-dasharray="2 11" stroke-linecap="round" marker-end="url(#route)"/>
<path d="M 690,300 C 740,420 740,640 660,780" fill="none" stroke="#7fd2e6" stroke-width="3" marker-end="url(#arrow)" opacity="0.9"/>
<text x="712" y="540" fill="#7fd2e6" font-family="'DM Sans', sans-serif" font-weight="700" font-size="16" transform="rotate(90 712 540)">MILD CURRENT</text>
<g transform="translate(250,905)">
      <line x1="0" y1="0" x2="0" y2="40" stroke="#9fc0d2" stroke-width="2" stroke-dasharray="3 3"/>
      <circle cx="0" cy="-6" r="9" fill="#f4c95d" stroke="#0c2138" stroke-width="1.6"/>
      <circle cx="0" cy="40" r="3.5" fill="#9fc0d2"/>
      <text x="14" y="-2" fill="#e7eef3" font-family="'DM Sans', sans-serif" font-weight="700" font-size="15">MOORING</text>
    </g>

<g transform="translate(790,130)">
  <circle r="40" fill="#0c2236" stroke="#3f7ea8" stroke-width="1.3"/>
  <circle r="30" fill="none" stroke="#234a66" stroke-width="0.8"/>
  <path d="M0,-34 L8,4 L0,-6 L-8,4 Z" fill="#5fb4d6"/>
  <path d="M0,34 L8,-4 L0,6 L-8,-4 Z" fill="#26486a"/>
  <text x="0" y="-44" text-anchor="middle" fill="#cfe6f2" font-family="'DM Sans', sans-serif" font-weight="700" font-size="15">N</text>
</g>
<g transform="translate(70,1060)"><rect x="0" y="0" width="46" height="9" fill="#dfe9ef" stroke="#dfe9ef" stroke-width="0.8"/><rect x="46" y="0" width="46" height="9" fill="#1a3550" stroke="#dfe9ef" stroke-width="0.8"/><rect x="92" y="0" width="46" height="9" fill="#dfe9ef" stroke="#dfe9ef" stroke-width="0.8"/><rect x="138" y="0" width="46" height="9" fill="#1a3550" stroke="#dfe9ef" stroke-width="0.8"/><text x="0" y="26" fill="#9fc0d2" font-family="'DM Sans', sans-serif" font-weight="600" font-size="14">0</text><text x="184" y="26" fill="#9fc0d2" font-family="'DM Sans', sans-serif" font-weight="600" font-size="14" text-anchor="end">50 m</text></g>
</svg>
