<svg xmlns="http://www.w3.org/2000/svg" viewBox="0 0 3750 1189" fill="#ffffff">
<!-- Scuba diver silhouette - realistic human form, horizontal swimming pose: tank on back, regulator, mask/hood, both bi-fins, trailing arm. Solid white-filled shape on transparent background (used as a CSS mask, tinted via currentColor). Derived (flattened to a clean silhouette) from a Public Domain (CC0) vintage line engraving "Scuba diver" by OpenClipart via freesvg.org: https://freesvg.org/scuba-diver (download id 47535). Style-matched to freediver.svg (same engraving family). License: CC0 / Public Domain. -->
<g transform="translate(0.000000,1189.000000) scale(0.100000,-0.100000)"
fill="#ffffff" stroke="none">
<path d="M11220 11860 c26 -36 60 -133 60 -170 0 -40 20 -89 40 -100 35 -19
44 -73 21 -126 -27 -61 -28 -57 22 -112 24 -26 54 -64 66 -85 13 -20 31 -42
41 -47 28 -15 40 -61 25 -96 -11 -26 -31 -38 -136 -84 -238 -103 -233 -101
-269 -89 -61 22 -64 52 -29 370 15 144 3 161 -164 224 -81 30 -101 31 -127 5
-29 -29 -16 -47 72 -91 113 -57 124 -89 94 -286 -26 -171 -65 -214 -174 -198
-101 15 -128 35 -152 114 -36 118 -90 159 -168 128 -45 -18 -96 -3 -107 32
-11 36 -45 50 -134 52 -71 3 -85 1 -97 -15 -14 -20 -3 -56 17 -56 5 0 17 -16
25 -36 14 -33 13 -39 -11 -92 -57 -124 -44 -186 50 -227 89 -40 91 -125 4
-168 -36 -17 -36 -17 -230 33 -307 80 -298 76 -315 116 -8 19 -12 39 -9 44 3
5 10 67 15 138 14 187 52 276 132 312 47 21 65 17 134 -30 99 -67 161 -79 177
-36 9 22 -127 162 -171 177 -107 35 -247 -47 -318 -188 -35 -68 -39 -84 -44
-176 -3 -56 -11 -112 -18 -123 -29 -54 -123 -46 -281 25 -47 21 -147 60 -221
86 -74 26 -181 67 -237 91 -131 56 -251 69 -563 61 -244 -6 -267 -11 -427 -85
-59 -28 -174 -73 -255 -101 -295 -102 -657 -304 -944 -527 -121 -94 -247 -290
-448 -699 -248 -503 -280 -619 -281 -1015 0 -260 8 -338 50 -460 26 -77 22
-96 -40 -177 -98 -128 -101 -299 -10 -568 50 -150 58 -183 65 -285 14 -206
110 -397 325 -648 193 -224 378 -369 630 -492 436 -213 446 -215 1045 -214
543 1 630 8 735 58 38 19 91 37 117 41 69 9 108 40 144 114 34 72 38 75 141
106 81 25 99 23 152 -16 30 -22 105 -41 256 -63 133 -20 209 -60 310 -161 153
-153 230 -272 247 -384 14 -88 21 -99 75 -112 60 -16 149 -88 336 -273 154
-152 184 -196 167 -240 -7 -20 -4 -31 21 -63 38 -47 50 -54 99 -57 79 -6 133
-82 151 -212 5 -38 16 -90 25 -116 13 -41 13 -50 1 -81 -24 -57 -47 -61 -357
-63 -151 -2 -278 -3 -282 -3 -4 -1 -12 -10 -18 -21 -19 -35 15 -55 117 -70 91
-13 132 -12 664 6 175 6 188 5 233 -15 66 -29 76 -28 188 25 153 71 136 74
584 -100 405 -157 521 -210 678 -309 203 -127 528 -237 703 -237 72 0 132 40
193 129 31 44 87 67 185 75 270 21 369 38 396 67 42 45 69 51 147 33 47 -12
141 -18 312 -23 l246 -6 324 -216 c479 -319 766 -488 1060 -625 212 -97 254
-110 281 -83 29 29 8 62 -120 193 -286 291 -515 471 -685 537 -235 91 -330
166 -303 242 16 46 60 59 206 59 198 0 380 -42 396 -91 8 -27 40 -44 66 -36
43 14 88 -13 115 -72 20 -42 37 -62 73 -83 103 -63 157 -109 218 -185 111
-137 142 -155 348 -196 133 -26 198 -23 410 20 206 41 295 51 468 51 87 0 157
4 168 11 12 6 38 48 59 93 57 125 115 135 200 35 24 -28 64 -61 93 -75 29 -15
138 -84 242 -154 105 -70 209 -137 233 -149 23 -12 113 -66 200 -120 86 -54
270 -160 407 -236 318 -175 440 -249 542 -329 90 -72 229 -224 272 -301 16
-27 55 -79 86 -115 31 -36 65 -81 75 -101 10 -20 35 -48 56 -64 69 -52 209
-400 233 -578 7 -50 27 -116 56 -186 94 -228 227 -796 254 -1083 6 -57 13
-112 17 -121 20 -54 144 -48 263 12 101 52 83 141 -21 103 -38 -13 -52 -14
-87 -4 -65 20 -68 28 -152 486 -53 289 -85 415 -174 681 -40 121 -76 240 -80
265 -10 68 -43 164 -93 270 -72 153 -92 217 -80 252 13 35 104 97 304 206 185
101 202 104 317 64 140 -49 260 -39 378 33 97 60 104 60 178 24 131 -65 719
-471 866 -599 103 -89 163 -102 203 -41 14 20 12 24 -33 68 -78 74 -390 302
-680 496 -451 301 -458 307 -536 466 -61 123 -126 207 -244 319 -52 49 -99
100 -104 114 -15 41 10 83 62 103 45 17 47 17 94 -6 29 -14 68 -24 98 -25 28
0 96 -15 153 -32 57 -17 147 -39 200 -48 53 -9 163 -38 243 -64 163 -55 263
-72 554 -95 202 -17 379 -37 750 -85 643 -84 758 -64 1775 305 471 171 671
240 950 331 80 25 262 94 405 151 768 309 1653 627 1845 664 75 14 100 25 190
84 135 89 377 170 495 166 83 -2 229 -67 330 -145 72 -56 76 -56 195 20 422
267 1263 298 2223 83 534 -120 763 -192 1682 -526 1057 -384 1291 -476 2017
-791 430 -187 529 -221 598 -202 68 18 120 100 120 189 0 100 -329 283 -865
481 -327 120 -911 390 -1365 629 -294 155 -373 202 -511 305 -179 134 -477
308 -1014 591 -437 230 -454 241 -815 542 -118 98 -294 242 -390 318 -125 99
-259 222 -465 425 -499 492 -645 586 -852 551 -175 -30 -445 -169 -505 -259
-31 -47 -59 -133 -84 -261 -13 -68 -35 -160 -50 -204 -36 -108 -36 -108 -269
-89 -387 33 -593 -47 -585 -225 3 -62 1 -72 -19 -92 -38 -38 -103 -42 -871
-51 -743 -9 -923 -16 -1225 -46 -219 -21 -370 -48 -474 -84 -48 -17 -123 -35
-167 -40 -228 -27 -716 -258 -1036 -491 -216 -158 -258 -174 -442 -167 -186 8
-184 7 -1026 417 -1298 633 -1249 605 -1215 689 34 79 458 683 625 887 131
161 229 288 369 480 82 111 142 185 159 192 15 7 72 12 130 13 96 0 105 2 127
24 32 32 24 53 -30 76 -52 22 -70 60 -50 106 22 52 869 942 916 962 40 17 80
-2 144 -67 37 -38 63 -56 100 -66 84 -25 131 -1 385 191 276 208 388 269 490
268 74 -1 311 -67 675 -188 440 -146 611 -227 1629 -769 604 -322 700 -376
711 -401 20 -46 2 -84 -50 -106 -52 -22 -62 -43 -33 -72 21 -21 25 -21 255
-14 l234 7 262 -130 c161 -80 312 -148 392 -175 72 -25 188 -66 258 -91 144
-51 205 -57 237 -25 23 23 24 27 6 100 -19 79 -51 135 -108 193 -60 60 -70 83
-53 124 22 53 16 53 465 28 58 -3 119 -8 137 -11 17 -3 39 -2 49 4 12 7 25 5
44 -6 25 -14 30 -14 51 -1 20 14 24 14 41 -3 23 -23 33 -23 58 2 38 38 -11 85
-56 55 -14 -9 -24 -11 -24 -5 0 18 -46 33 -66 22 -13 -7 -24 -6 -40 4 -12 8
-39 14 -60 14 -22 0 -131 8 -244 19 -113 11 -342 27 -508 35 -209 11 -315 21
-338 31 -59 24 -523 384 -749 579 -192 166 -302 254 -595 476 -162 123 -387
300 -500 394 -223 187 -527 434 -797 648 -281 224 -497 418 -943 849 -327 317
-460 436 -526 475 -27 16 -63 43 -79 60 -36 38 -103 53 -158 35 -79 -27 -494
-491 -652 -732 -79 -118 -116 -147 -345 -269 -274 -145 -506 -295 -531 -342
-6 -11 -8 -27 -4 -35 3 -9 -5 -39 -19 -67 -13 -28 -29 -71 -36 -96 -30 -113
-318 -338 -720 -561 -63 -35 -177 -106 -254 -157 -76 -51 -175 -111 -220 -132
-137 -66 -373 -268 -747 -640 -264 -263 -358 -367 -582 -642 -307 -377 -290
-364 -547 -449 -173 -57 -155 -60 -333 70 -287 209 -725 460 -894 510 -80 24
-208 76 -356 145 -124 57 -127 64 -127 246 0 217 -2 215 280 224 102 3 226 13
275 21 394 64 663 269 853 651 180 360 214 701 111 1119 -152 618 -398 759
-1729 990 -399 69 -1200 223 -1331 255 -177 45 -306 93 -514 193 l-190 92
-2146 3 -2147 3 -63 -73 c-194 -221 -267 -278 -330 -256 -38 13 -52 40 -55
108 -3 65 -20 119 -57 178 l-27 42 -116 0 -115 0 21 -30z"/>
</g>
</svg>
